<svg id="Capa_1" enable-background="new 0 0 512 512" height="512" viewBox="0 0 512 512" width="512" xmlns="http://www.w3.org/2000/svg"><g><path d="m256 295.114c12.471 0 22.616-10.146 22.616-22.616 0-12.471-10.145-22.616-22.616-22.616s-22.616 10.146-22.616 22.616c0 12.471 10.145 22.616 22.616 22.616zm0-30.232c4.2 0 7.616 3.417 7.616 7.616 0 4.2-3.417 7.616-7.616 7.616-4.2 0-7.616-3.416-7.616-7.616s3.416-7.616 7.616-7.616z"/><path d="m256.153 239.195c12.386 0 22.463-10.077 22.463-22.463v-66.027c0-12.386-10.077-22.463-22.463-22.463s-22.463 10.077-22.463 22.463v66.027c-.001 12.386 10.077 22.463 22.463 22.463zm-7.464-88.491c0-4.115 3.348-7.463 7.463-7.463s7.463 3.348 7.463 7.463v66.027c0 4.115-3.348 7.463-7.463 7.463s-7.463-3.348-7.463-7.463z"/><path d="m383.27 436.184c9.649 0 17.5 7.851 17.5 17.5v12.275c0 1.378-1.122 2.5-2.5 2.5h-38.593c-4.142 0-7.5 3.358-7.5 7.5s3.358 7.5 7.5 7.5h38.593c9.649 0 17.5-7.851 17.5-17.5v-12.275c0-17.92-14.58-32.5-32.5-32.5h-33.827l-20.591-58.006h160.648c12.407 0 22.5-10.093 22.5-22.5v-289.636c0-12.407-10.093-22.5-22.5-22.5h-92.386c-4.142 0-7.5 3.358-7.5 7.5s3.358 7.5 7.5 7.5h92.386c4.136 0 7.5 3.364 7.5 7.5v289.636c0 4.135-3.364 7.5-7.5 7.5h-467c-4.136 0-7.5-3.365-7.5-7.5v-289.636c0-4.136 3.364-7.5 7.5-7.5h341.927c4.142 0 7.5-3.358 7.5-7.5s-3.358-7.5-7.5-7.5h-341.927c-12.407 0-22.5 10.093-22.5 22.5v289.636c0 12.407 10.093 22.5 22.5 22.5h160.648l-20.591 58.006h-33.827c-17.92 0-32.5 14.58-32.5 32.5v12.275c0 9.649 7.851 17.5 17.5 17.5h213.261c4.142 0 7.5-3.358 7.5-7.5s-3.358-7.5-7.5-7.5h-213.261c-1.378 0-2.5-1.122-2.5-2.5v-12.275c0-9.649 7.851-17.5 17.5-17.5zm-49.744-15h-155.052l20.591-58.006h113.87z"/><path d="m190.938 194.104c2.071-3.587.842-8.174-2.745-10.245-3.588-2.073-8.174-.842-10.245 2.745l-63.481 109.953c-3.164 5.478-3.164 12.02 0 17.499 3.163 5.479 8.829 8.751 15.155 8.751h252.756c6.327 0 11.992-3.271 15.155-8.751 3.164-5.479 3.164-12.021 0-17.499l-126.378-218.894c-3.163-5.479-8.829-8.75-15.155-8.75-6.327 0-11.992 3.271-15.155 8.75l-46.038 79.74c-2.071 3.587-.842 8.174 2.745 10.245 3.586 2.071 8.173.842 10.245-2.745l46.038-79.74c.628-1.087 1.626-1.25 2.165-1.25s1.537.163 2.165 1.25l126.378 218.893c.628 1.087.27 2.033 0 2.5s-.909 1.25-2.165 1.25h-252.756c-1.256 0-1.895-.783-2.165-1.25s-.628-1.413 0-2.5z"/></g></svg>